<svg width="30" height="34" viewBox="0 0 30 34" fill="none" xmlns="http://www.w3.org/2000/svg">
<path d="M15.0214 6.31494C12.3746 6.31806 9.83716 7.37088 7.96559 9.24244C6.09403 11.114 5.04122 13.6515 5.0381 16.2983C5.03493 18.4612 5.74145 20.5655 7.04928 22.2883C7.04928 22.2883 7.32156 22.6468 7.36603 22.6985L15.0214 31.7271L22.6805 22.694C22.7204 22.6459 22.9936 22.2883 22.9936 22.2883L22.9945 22.2855C24.3017 20.5635 25.0079 18.4602 25.0048 16.2983C25.0016 13.6515 23.9488 11.114 22.0773 9.24244C20.2057 7.37088 17.6682 6.31806 15.0214 6.31494ZM15.0214 19.9286C14.3034 19.9286 13.6015 19.7157 13.0045 19.3168C12.4075 18.9179 11.9422 18.3509 11.6675 17.6875C11.3927 17.0242 11.3208 16.2942 11.4609 15.59C11.601 14.8858 11.9467 14.239 12.4544 13.7313C12.9621 13.2236 13.609 12.8778 14.3132 12.7377C15.0174 12.5976 15.7473 12.6695 16.4107 12.9443C17.074 13.2191 17.641 13.6844 18.0399 14.2814C18.4388 14.8784 18.6517 15.5803 18.6517 16.2983C18.6505 17.2607 18.2677 18.1834 17.5871 18.864C16.9066 19.5445 15.9839 19.9274 15.0214 19.9286Z" fill="white"/>
</svg>
