<svg width="141" height="115" viewBox="0 0 141 115" fill="none" xmlns="http://www.w3.org/2000/svg">
<path d="M9.59454 56.9325C12.5795 56.5157 15.6469 57.6364 17.9969 59.5251C20.3459 61.414 22.0393 64.0097 23.3105 66.7424C25.7704 72.0296 26.0092 78.7377 25.397 84.5373C19.0128 83.4462 14.1827 77.6915 11.916 74.618C8.33264 69.7609 4.80709 58.8059 9.59454 56.9325Z" fill="#E8505B"/>
<path d="M35.2233 89.7438C32.8493 87.3561 32.1398 83.5791 33.118 80.357C34.0963 77.1348 36.5997 74.4955 39.5986 72.9645C40.9852 72.257 42.6533 71.7691 44.0778 72.3959C45.4095 72.9828 46.1997 74.4538 46.296 75.9065C46.3934 77.3589 45.8998 78.7893 45.2507 80.0928C43.025 84.5612 40.0504 88.4763 35.2233 89.7438Z" fill="#E8505B"/>
<path d="M39.1418 108.168C39.113 108.178 38.9506 107.783 38.6702 107.063C38.3648 106.268 37.9709 105.241 37.4963 104.009C36.5549 101.433 35.138 97.7848 34.9722 93.5048C34.7872 89.2476 35.8185 85.3984 37.1819 82.9684C37.8476 81.7432 38.5327 80.8388 39.0563 80.2652C39.3055 79.968 39.5375 79.7706 39.6807 79.6262C39.8297 79.4859 39.9117 79.4178 39.9227 79.428C40.0014 79.4908 38.691 80.655 37.4476 83.1075C36.177 85.5284 35.2141 89.3019 35.3953 93.4886C35.5551 97.6813 36.9067 101.306 37.7778 103.909C38.2282 105.214 38.5932 106.271 38.8251 107.01C39.0586 107.745 39.1686 108.159 39.1418 108.168Z" fill="#263238"/>
<path d="M13.0165 65.0384C13.0291 65.03 13.1388 65.1724 13.3387 65.4507C13.559 65.768 13.8426 66.1753 14.1929 66.6791C14.9286 67.7503 15.9728 69.3137 17.2466 71.2557C19.7951 75.1396 23.2405 80.555 26.9098 86.6207C30.5786 92.6894 33.7753 98.2555 36.0321 102.316C37.1613 104.346 38.0601 105.997 38.6676 107.145C38.9511 107.69 39.1798 108.129 39.3589 108.472C39.5128 108.777 39.5879 108.941 39.575 108.948C39.562 108.955 39.4622 108.805 39.2841 108.513C39.0874 108.18 38.8358 107.754 38.5236 107.225C37.848 106.055 36.9142 104.439 35.7724 102.463C33.4507 98.4416 30.2153 92.9029 26.5482 86.8379C22.8809 80.777 19.4783 75.3404 16.9955 71.416C15.7761 69.4873 14.7782 67.9103 14.0557 66.7675C13.7325 66.2455 13.4716 65.8238 13.2676 65.4954C13.0919 65.2045 13.0046 65.0457 13.0165 65.0384Z" fill="#263238"/>
<path d="M29.8566 97.1545C25.2547 91.7492 17.9189 88.8031 10.8561 89.5224C9.05754 89.706 6.97436 90.3804 6.46245 92.1131C5.95027 93.85 7.3427 95.5535 8.78294 96.6512C14.7747 101.218 23.6232 101.623 30.0056 97.6202" fill="#E8505B"/>
<path d="M14.395 93.801C14.3917 93.7721 14.7897 93.719 15.5135 93.6463C15.8756 93.608 16.3197 93.5626 16.8374 93.5687C17.354 93.574 17.946 93.5257 18.5955 93.5898C19.2462 93.6334 19.9609 93.6652 20.7182 93.7959C21.4826 93.8825 22.2825 94.0623 23.1248 94.2566C24.7958 94.6874 26.6003 95.3182 28.3739 96.2385C30.1384 97.1757 31.6877 98.2971 32.9871 99.4361C33.6197 100.026 34.222 100.584 34.719 101.171C35.2515 101.726 35.6754 102.304 36.0702 102.823C36.4838 103.328 36.7673 103.85 37.0552 104.28C37.345 104.71 37.5484 105.106 37.7122 105.432C38.0453 106.079 38.216 106.442 38.1899 106.455C38.1071 106.502 37.4106 105.043 35.8321 103.004C35.4275 102.503 34.996 101.945 34.4607 101.408C33.9601 100.84 33.3581 100.3 32.7298 99.7276C31.4381 98.6248 29.9114 97.5329 28.1785 96.6122C26.4365 95.7085 24.6696 95.0778 23.0294 94.6322C22.2031 94.4308 21.4175 94.2403 20.6668 94.1399C19.9222 93.9957 19.2188 93.9476 18.5768 93.8851C16.0043 93.6991 14.4009 93.8934 14.395 93.801Z" fill="#263238"/>
<path d="M36.7667 41.4311L137.622 40.6987L140.432 109.267L36.001 108.299L36.7667 41.4311Z" fill="#FF6816"/>
<path d="M36.7666 41.4311L87.9689 0L137.622 40.6987" fill="#FF6816"/>
<g opacity="0.3">
<path d="M36.7666 41.4311L87.9689 0L137.622 40.6987" fill="#351F1F"/>
</g>
<path d="M36.0014 108.3C35.8757 108.182 43.9496 99.3662 54.0336 88.612C64.1206 77.8539 72.3966 69.2317 72.5224 69.3498C72.6481 69.468 64.5758 78.2818 54.4888 89.0391C44.4055 99.7934 36.1279 108.418 36.0014 108.3Z" fill="#263238"/>
<path d="M140.433 109.268C140.305 109.382 132.441 100.745 122.873 89.9774C113.301 79.2064 105.649 70.385 105.778 70.2707C105.907 70.1563 113.769 78.7921 123.34 89.5623C132.909 100.33 140.563 109.153 140.433 109.268Z" fill="#263238"/>
<g opacity="0.5">
<path d="M137.622 40.6987L86.9775 81.1559L36.7666 41.4311" fill="#351F1F"/>
</g>
<path d="M41.8462 45.1781L41.6992 15.8396L130.031 13.6787L130.996 45.7772L86.9726 80.6265L41.8462 45.1781Z" fill="#ECECEC"/>
<path d="M88.2053 70.0869C87.3706 70.0869 86.5299 70.0392 85.6877 69.9438C79.8549 69.2833 74.6289 66.3908 70.973 61.7987C67.3162 57.2081 65.6666 51.4671 66.3271 45.6351C67.6912 33.5948 78.5969 24.9067 90.6365 26.2745C96.4684 26.935 101.694 29.8275 105.351 34.4188C109.008 39.0102 110.658 44.7505 109.997 50.5832C109.337 56.4151 106.444 61.6412 101.852 65.2979C97.9234 68.4267 93.1541 70.0869 88.2053 70.0869ZM88.1469 26.8911C77.5078 26.8911 68.3062 34.9036 67.0799 45.7207C66.4422 51.352 68.035 56.8946 71.566 61.3284C75.097 65.7607 80.142 68.554 85.7733 69.1917C91.403 69.8332 96.9471 68.2366 101.381 64.7064C105.813 61.1754 108.606 56.1304 109.244 50.4984C109.883 44.8671 108.29 39.3245 104.759 34.8914C101.229 30.4584 96.1829 27.6659 90.5509 27.0274C89.7443 26.9358 88.9407 26.8911 88.1469 26.8911Z" fill="#8AD256"/>
<path d="M73.2266 51.1609L76.8984 46.6604L85.4896 52.8665L99.4499 36.4121L103.659 40.1135L85.7047 60.8063L73.2266 51.1609Z" fill="#8AD256"/>
</svg>
